<?xml version="1.0" standalone="no"?>
<!DOCTYPE svg PUBLIC "-//W3C//DTD SVG 20010904//EN"
 "http://www.w3.org/TR/2001/REC-SVG-20010904/DTD/svg10.dtd">
<svg version="1.0" xmlns="http://www.w3.org/2000/svg"
 width="80.000000pt" height="80.000000pt" viewBox="0 0 80.000000 80.000000"
 preserveAspectRatio="xMidYMid meet">
<metadata>
Created by potrace 1.11, written by Peter Selinger 2001-2013
</metadata>
<g transform="translate(0.000000,80.000000) scale(0.100000,-0.100000)"
fill="#000000" stroke="none">
<path d="M380 707 c-30 -15 -37 -49 -15 -71 16 -16 16 -39 0 -116 -3 -14 -8
-40 -11 -57 -3 -18 -9 -33 -13 -33 -3 0 -21 39 -40 86 -32 83 -33 86 -15 105
17 19 17 23 3 47 -18 33 -44 39 -70 16 -24 -21 -24 -47 -2 -70 14 -14 18 -36
18 -110 1 -51 -3 -90 -7 -88 -4 3 -25 35 -47 71 -27 44 -37 72 -32 81 22 39
-23 79 -67 59 -33 -15 -27 -67 9 -84 23 -11 27 -22 38 -95 7 -46 14 -92 16
-103 2 -11 4 -23 4 -27 1 -4 7 -13 14 -20 45 -46 47 -57 20 -110 l-25 -50 21
-22 c21 -20 31 -21 220 -21 222 0 237 4 225 59 -3 17 -12 42 -19 56 -11 21
-11 29 3 52 9 16 19 28 23 28 12 0 26 58 40 153 11 78 15 89 38 100 34 16 40
59 11 80 -40 28 -91 -12 -69 -55 7 -12 -2 -34 -33 -82 -23 -36 -44 -66 -48
-66 -3 0 -5 38 -5 84 0 66 4 88 18 103 22 25 22 46 -1 66 -25 23 -45 21 -68
-4 -18 -20 -18 -22 -1 -50 16 -29 16 -32 -14 -107 -31 -78 -45 -103 -46 -80 0
7 -9 52 -18 100 -17 81 -17 88 -1 104 37 37 -6 95 -54 71z"/>
</g>
</svg>
